{
	"asset":{
		"generator":"Khronos glTF Blender I/O v5.0.21",
		"version":"2.0"
	},
	"scene":0,
	"scenes":[
		{
			"name":"Scene",
			"nodes":[
				0,
				1,
				2,
				3,
				4,
				5,
				6,
				7,
				8,
				9,
				10,
				11,
				12
			]
		}
	],
	"nodes":[
		{
			"mesh":0,
			"name":"Cube"
		},
		{
			"mesh":1,
			"name":"mesh_18_224.nr",
			"rotation":[
				0.7192338109016418,
				0,
				0,
				0.6947681307792664
			]
		},
		{
			"mesh":2,
			"name":"mesh_18_208.nr",
			"rotation":[
				0.7192338109016418,
				0,
				0,
				0.6947681307792664
			],
			"translation":[
				0.052366018295288086,
				1.6602755784988403,
				0
			]
		},
		{
			"mesh":3,
			"name":"mesh_18_199.nr",
			"rotation":[
				0.7192338109016418,
				0,
				0,
				0.6947681307792664
			]
		},
		{
			"mesh":4,
			"name":"mesh_18_174.nr",
			"rotation":[
				0.7192338109016418,
				0,
				0,
				0.6947681307792664
			]
		},
		{
			"mesh":5,
			"name":"mesh_18_149.nr",
			"rotation":[
				0.7192338109016418,
				0,
				0,
				0.6947681307792664
			]
		},
		{
			"mesh":6,
			"name":"mesh_16_123.nr",
			"rotation":[
				0.7192338109016418,
				0,
				0,
				0.6947681307792664
			],
			"translation":[
				0,
				-0.92706298828125,
				0
			]
		},
		{
			"mesh":7,
			"name":"mesh_16_104.nr",
			"rotation":[
				0.7192338109016418,
				0,
				0,
				0.6947681307792664
			]
		},
		{
			"mesh":8,
			"name":"mesh_16_99.nr",
			"rotation":[
				0.7192338109016418,
				0,
				0,
				0.6947681307792664
			]
		},
		{
			"mesh":9,
			"name":"mesh_14_35.nr",
			"rotation":[
				0.7192338109016418,
				0,
				0,
				0.6947681307792664
			]
		},
		{
			"mesh":10,
			"name":"mesh_14_33.nr",
			"rotation":[
				0.7192338109016418,
				0,
				0,
				0.6947681307792664
			]
		},
		{
			"mesh":11,
			"name":"mesh_10_20.nr",
			"rotation":[
				0.7192338109016418,
				0,
				0,
				0.6947681307792664
			],
			"translation":[
				-0.013449668884277344,
				0,
				0
			]
		},
		{
			"mesh":12,
			"name":"mesh_10_19.nr",
			"rotation":[
				0.7192338109016418,
				0,
				0,
				0.6947681307792664
			]
		}
	],
	"materials":[
		{
			"doubleSided":true,
			"name":"Material",
			"pbrMetallicRoughness":{
				"baseColorFactor":[
					0.800000011920929,
					0.800000011920929,
					0.800000011920929,
					1
				],
				"metallicFactor":0,
				"roughnessFactor":0.5
			}
		},
		{
			"doubleSided":true,
			"name":"mat_46",
			"pbrMetallicRoughness":{
				"baseColorTexture":{
					"index":0
				},
				"metallicFactor":0,
				"roughnessFactor":0.5
			}
		},
		{
			"doubleSided":true,
			"name":"mat_47",
			"pbrMetallicRoughness":{
				"baseColorTexture":{
					"index":1
				},
				"metallicFactor":0,
				"roughnessFactor":0.5
			}
		},
		{
			"doubleSided":true,
			"name":"mat_53",
			"pbrMetallicRoughness":{
				"baseColorTexture":{
					"index":2
				},
				"metallicFactor":0,
				"roughnessFactor":0.5
			}
		},
		{
			"doubleSided":true,
			"name":"mat_54",
			"pbrMetallicRoughness":{
				"baseColorTexture":{
					"index":3
				},
				"metallicFactor":0,
				"roughnessFactor":0.5
			}
		},
		{
			"doubleSided":true,
			"name":"mat_58",
			"pbrMetallicRoughness":{
				"baseColorTexture":{
					"index":4
				},
				"metallicFactor":0.47706401348114014,
				"roughnessFactor":0.5
			}
		}
	],
	"meshes":[
		{
			"name":"Cube",
			"primitives":[
				{
					"attributes":{
						"POSITION":0,
						"NORMAL":1,
						"TEXCOORD_0":2
					},
					"indices":3,
					"material":0
				}
			]
		},
		{
			"name":"mesh_18_224.nr",
			"primitives":[
				{
					"attributes":{
						"POSITION":4,
						"NORMAL":5,
						"TEXCOORD_0":6,
						"TEXCOORD_1":7,
						"TEXCOORD_2":8,
						"TEXCOORD_3":9
					},
					"indices":10,
					"material":1
				}
			]
		},
		{
			"name":"mesh_18_208.nr",
			"primitives":[
				{
					"attributes":{
						"POSITION":11,
						"NORMAL":12,
						"TEXCOORD_0":13,
						"TEXCOORD_1":14,
						"TEXCOORD_2":15,
						"TEXCOORD_3":16
					},
					"indices":17,
					"material":2
				}
			]
		},
		{
			"name":"mesh_18_199.nr",
			"primitives":[
				{
					"attributes":{
						"POSITION":18,
						"NORMAL":19,
						"TEXCOORD_0":20,
						"TEXCOORD_1":21,
						"TEXCOORD_2":22,
						"TEXCOORD_3":23
					},
					"indices":10,
					"material":1
				}
			]
		},
		{
			"name":"mesh_18_174.nr",
			"primitives":[
				{
					"attributes":{
						"POSITION":24,
						"NORMAL":25,
						"TEXCOORD_0":26,
						"TEXCOORD_1":27,
						"TEXCOORD_2":28,
						"TEXCOORD_3":29
					},
					"indices":10,
					"material":1
				}
			]
		},
		{
			"name":"mesh_18_149.nr",
			"primitives":[
				{
					"attributes":{
						"POSITION":30,
						"NORMAL":31,
						"TEXCOORD_0":32,
						"TEXCOORD_1":33,
						"TEXCOORD_2":34,
						"TEXCOORD_3":35
					},
					"indices":10,
					"material":1
				}
			]
		},
		{
			"name":"mesh_16_123.nr",
			"primitives":[
				{
					"attributes":{
						"POSITION":36,
						"NORMAL":37,
						"TEXCOORD_0":38,
						"TEXCOORD_1":39,
						"TEXCOORD_2":40,
						"TEXCOORD_3":41
					},
					"indices":42,
					"material":2
				}
			]
		},
		{
			"name":"mesh_16_104.nr",
			"primitives":[
				{
					"attributes":{
						"POSITION":43,
						"NORMAL":44,
						"TEXCOORD_0":45,
						"TEXCOORD_1":46,
						"TEXCOORD_2":47,
						"TEXCOORD_3":48
					},
					"indices":49,
					"material":2
				}
			]
		},
		{
			"name":"mesh_16_99.nr",
			"primitives":[
				{
					"attributes":{
						"POSITION":50,
						"NORMAL":51,
						"TEXCOORD_0":52,
						"TEXCOORD_1":53,
						"TEXCOORD_2":54,
						"TEXCOORD_3":55
					},
					"indices":10,
					"material":1
				}
			]
		},
		{
			"name":"mesh_14_35.nr",
			"primitives":[
				{
					"attributes":{
						"POSITION":56,
						"NORMAL":57,
						"TEXCOORD_0":58,
						"TEXCOORD_1":59,
						"TEXCOORD_2":60,
						"TEXCOORD_3":61
					},
					"indices":62,
					"material":3
				}
			]
		},
		{
			"name":"mesh_14_33.nr",
			"primitives":[
				{
					"attributes":{
						"POSITION":63,
						"NORMAL":64,
						"TEXCOORD_0":65,
						"TEXCOORD_1":66,
						"TEXCOORD_2":67,
						"TEXCOORD_3":68
					},
					"indices":69,
					"material":4
				}
			]
		},
		{
			"name":"mesh_10_20.nr",
			"primitives":[
				{
					"attributes":{
						"POSITION":70,
						"NORMAL":71,
						"TEXCOORD_0":72,
						"TEXCOORD_1":73,
						"TEXCOORD_2":74,
						"TEXCOORD_3":75
					},
					"indices":76,
					"material":5
				}
			]
		},
		{
			"name":"mesh_10_19.nr",
			"primitives":[
				{
					"attributes":{
						"POSITION":77,
						"NORMAL":78,
						"TEXCOORD_0":79,
						"TEXCOORD_1":80,
						"TEXCOORD_2":81,
						"TEXCOORD_3":82
					},
					"indices":69,
					"material":5
				}
			]
		}
	],
	"textures":[
		{
			"sampler":0,
			"source":0
		},
		{
			"sampler":0,
			"source":0
		},
		{
			"sampler":0,
			"source":0
		},
		{
			"sampler":0,
			"source":1
		},
		{
			"sampler":0,
			"source":1
		}
	],
	"images":[
		{
			"mimeType":"image/png",
			"name":"000001E8347CC8A0",
			"uri":"000001E8347CC8A0.png"
		},
		{
			"mimeType":"image/png",
			"name":"000001E8347CC5E0",
			"uri":"000001E8347CC5E0.png"
		}
	],
	"accessors":[
		{
			"bufferView":0,
			"componentType":5126,
			"count":24,
			"max":[
				1,
				1,
				1
			],
			"min":[
				-1,
				-1,
				-1
			],
			"type":"VEC3"
		},
		{
			"bufferView":1,
			"componentType":5126,
			"count":24,
			"type":"VEC3"
		},
		{
			"bufferView":2,
			"componentType":5126,
			"count":24,
			"type":"VEC2"
		},
		{
			"bufferView":3,
			"componentType":5123,
			"count":36,
			"type":"SCALAR"
		},
		{
			"bufferView":4,
			"componentType":5126,
			"count":1022,
			"max":[
				2.117168664932251,
				11.795005798339844,
				-0.09899605065584183
			],
			"min":[
				-2.1171696186065674,
				-12.489032745361328,
				-5.206808567047119
			],
			"type":"VEC3"
		},
		{
			"bufferView":5,
			"componentType":5126,
			"count":1022,
			"type":"VEC3"
		},
		{
			"bufferView":6,
			"componentType":5126,
			"count":1022,
			"type":"VEC2"
		},
		{
			"bufferView":7,
			"componentType":5126,
			"count":1022,
			"type":"VEC2"
		},
		{
			"bufferView":8,
			"componentType":5126,
			"count":1022,
			"type":"VEC2"
		},
		{
			"bufferView":9,
			"componentType":5126,
			"count":1022,
			"type":"VEC2"
		},
		{
			"bufferView":10,
			"componentType":5123,
			"count":1704,
			"type":"SCALAR"
		},
		{
			"bufferView":11,
			"componentType":5126,
			"count":4072,
			"max":[
				0.19625307619571686,
				0.2084505409002304,
				0.0908430814743042
			],
			"min":[
				-0.21810291707515717,
				-0.20845037698745728,
				-0.13158175349235535
			],
			"type":"VEC3"
		},
		{
			"bufferView":12,
			"componentType":5126,
			"count":4072,
			"type":"VEC3"
		},
		{
			"bufferView":13,
			"componentType":5126,
			"count":4072,
			"type":"VEC2"
		},
		{
			"bufferView":14,
			"componentType":5126,
			"count":4072,
			"type":"VEC2"
		},
		{
			"bufferView":15,
			"componentType":5126,
			"count":4072,
			"type":"VEC2"
		},
		{
			"bufferView":16,
			"componentType":5126,
			"count":4072,
			"type":"VEC2"
		},
		{
			"bufferView":17,
			"componentType":5123,
			"count":9144,
			"type":"SCALAR"
		},
		{
			"bufferView":18,
			"componentType":5126,
			"count":1022,
			"max":[
				2.117168664932251,
				11.795005798339844,
				-0.09899605065584183
			],
			"min":[
				-2.1171696186065674,
				-12.489032745361328,
				-5.206808567047119
			],
			"type":"VEC3"
		},
		{
			"bufferView":19,
			"componentType":5126,
			"count":1022,
			"type":"VEC3"
		},
		{
			"bufferView":20,
			"componentType":5126,
			"count":1022,
			"type":"VEC2"
		},
		{
			"bufferView":21,
			"componentType":5126,
			"count":1022,
			"type":"VEC2"
		},
		{
			"bufferView":22,
			"componentType":5126,
			"count":1022,
			"type":"VEC2"
		},
		{
			"bufferView":23,
			"componentType":5126,
			"count":1022,
			"type":"VEC2"
		},
		{
			"bufferView":24,
			"componentType":5126,
			"count":1022,
			"max":[
				2.117168664932251,
				11.795005798339844,
				-0.09899605065584183
			],
			"min":[
				-2.1171696186065674,
				-12.489032745361328,
				-5.206808567047119
			],
			"type":"VEC3"
		},
		{
			"bufferView":25,
			"componentType":5126,
			"count":1022,
			"type":"VEC3"
		},
		{
			"bufferView":26,
			"componentType":5126,
			"count":1022,
			"type":"VEC2"
		},
		{
			"bufferView":27,
			"componentType":5126,
			"count":1022,
			"type":"VEC2"
		},
		{
			"bufferView":28,
			"componentType":5126,
			"count":1022,
			"type":"VEC2"
		},
		{
			"bufferView":29,
			"componentType":5126,
			"count":1022,
			"type":"VEC2"
		},
		{
			"bufferView":30,
			"componentType":5126,
			"count":1022,
			"max":[
				2.117168664932251,
				11.795005798339844,
				-0.09899605065584183
			],
			"min":[
				-2.1171696186065674,
				-12.489032745361328,
				-5.206808567047119
			],
			"type":"VEC3"
		},
		{
			"bufferView":31,
			"componentType":5126,
			"count":1022,
			"type":"VEC3"
		},
		{
			"bufferView":32,
			"componentType":5126,
			"count":1022,
			"type":"VEC2"
		},
		{
			"bufferView":33,
			"componentType":5126,
			"count":1022,
			"type":"VEC2"
		},
		{
			"bufferView":34,
			"componentType":5126,
			"count":1022,
			"type":"VEC2"
		},
		{
			"bufferView":35,
			"componentType":5126,
			"count":1022,
			"type":"VEC2"
		},
		{
			"bufferView":36,
			"componentType":5126,
			"count":88,
			"max":[
				0.06534166634082794,
				0.24674560129642487,
				0.8046255111694336
			],
			"min":[
				-0.06223120912909508,
				-0.257441908121109,
				-3.295898568467237e-05
			],
			"type":"VEC3"
		},
		{
			"bufferView":37,
			"componentType":5126,
			"count":88,
			"type":"VEC3"
		},
		{
			"bufferView":38,
			"componentType":5126,
			"count":88,
			"type":"VEC2"
		},
		{
			"bufferView":39,
			"componentType":5126,
			"count":88,
			"type":"VEC2"
		},
		{
			"bufferView":40,
			"componentType":5126,
			"count":88,
			"type":"VEC2"
		},
		{
			"bufferView":41,
			"componentType":5126,
			"count":88,
			"type":"VEC2"
		},
		{
			"bufferView":42,
			"componentType":5123,
			"count":180,
			"type":"SCALAR"
		},
		{
			"bufferView":43,
			"componentType":5126,
			"count":58101,
			"max":[
				1.7776647806167603,
				12.167280197143555,
				0.840541660785675
			],
			"min":[
				-1.7776622772216797,
				-12.287725448608398,
				-6.008300304412842
			],
			"type":"VEC3"
		},
		{
			"bufferView":44,
			"componentType":5126,
			"count":58101,
			"type":"VEC3"
		},
		{
			"bufferView":45,
			"componentType":5126,
			"count":58101,
			"type":"VEC2"
		},
		{
			"bufferView":46,
			"componentType":5126,
			"count":58101,
			"type":"VEC2"
		},
		{
			"bufferView":47,
			"componentType":5126,
			"count":58101,
			"type":"VEC2"
		},
		{
			"bufferView":48,
			"componentType":5126,
			"count":58101,
			"type":"VEC2"
		},
		{
			"bufferView":49,
			"componentType":5123,
			"count":123564,
			"type":"SCALAR"
		},
		{
			"bufferView":50,
			"componentType":5126,
			"count":1022,
			"max":[
				2.117168664932251,
				11.795005798339844,
				-0.09899605065584183
			],
			"min":[
				-2.1171696186065674,
				-12.489032745361328,
				-5.206808567047119
			],
			"type":"VEC3"
		},
		{
			"bufferView":51,
			"componentType":5126,
			"count":1022,
			"type":"VEC3"
		},
		{
			"bufferView":52,
			"componentType":5126,
			"count":1022,
			"type":"VEC2"
		},
		{
			"bufferView":53,
			"componentType":5126,
			"count":1022,
			"type":"VEC2"
		},
		{
			"bufferView":54,
			"componentType":5126,
			"count":1022,
			"type":"VEC2"
		},
		{
			"bufferView":55,
			"componentType":5126,
			"count":1022,
			"type":"VEC2"
		},
		{
			"bufferView":56,
			"componentType":5126,
			"count":1048,
			"max":[
				2.1173338890075684,
				11.795005798339844,
				-0.09894426167011261
			],
			"min":[
				-2.117319345474243,
				-12.489032745361328,
				-5.2069854736328125
			],
			"type":"VEC3"
		},
		{
			"bufferView":57,
			"componentType":5126,
			"count":1048,
			"type":"VEC3"
		},
		{
			"bufferView":58,
			"componentType":5126,
			"count":1048,
			"type":"VEC2"
		},
		{
			"bufferView":59,
			"componentType":5126,
			"count":1048,
			"type":"VEC2"
		},
		{
			"bufferView":60,
			"componentType":5126,
			"count":1048,
			"type":"VEC2"
		},
		{
			"bufferView":61,
			"componentType":5126,
			"count":1048,
			"type":"VEC2"
		},
		{
			"bufferView":62,
			"componentType":5123,
			"count":2010,
			"type":"SCALAR"
		},
		{
			"bufferView":63,
			"componentType":5126,
			"count":9973,
			"max":[
				1.7768588066101074,
				12.167281150817871,
				0.7993899583816528
			],
			"min":[
				-1.7767678499221802,
				-12.28022289276123,
				-5.086141109466553
			],
			"type":"VEC3"
		},
		{
			"bufferView":64,
			"componentType":5126,
			"count":9973,
			"type":"VEC3"
		},
		{
			"bufferView":65,
			"componentType":5126,
			"count":9973,
			"type":"VEC2"
		},
		{
			"bufferView":66,
			"componentType":5126,
			"count":9973,
			"type":"VEC2"
		},
		{
			"bufferView":67,
			"componentType":5126,
			"count":9973,
			"type":"VEC2"
		},
		{
			"bufferView":68,
			"componentType":5126,
			"count":9973,
			"type":"VEC2"
		},
		{
			"bufferView":69,
			"componentType":5123,
			"count":19458,
			"type":"SCALAR"
		},
		{
			"bufferView":70,
			"componentType":5126,
			"count":4430,
			"max":[
				1.9222389459609985,
				12.234031677246094,
				1.698219895362854
			],
			"min":[
				-1.922235131263733,
				-12.234027862548828,
				-6.008275985717773
			],
			"type":"VEC3"
		},
		{
			"bufferView":71,
			"componentType":5126,
			"count":4430,
			"type":"VEC3"
		},
		{
			"bufferView":72,
			"componentType":5126,
			"count":4430,
			"type":"VEC2"
		},
		{
			"bufferView":73,
			"componentType":5126,
			"count":4430,
			"type":"VEC2"
		},
		{
			"bufferView":74,
			"componentType":5126,
			"count":4430,
			"type":"VEC2"
		},
		{
			"bufferView":75,
			"componentType":5126,
			"count":4430,
			"type":"VEC2"
		},
		{
			"bufferView":76,
			"componentType":5123,
			"count":9657,
			"type":"SCALAR"
		},
		{
			"bufferView":77,
			"componentType":5126,
			"count":9973,
			"max":[
				1.7768588066101074,
				12.167281150817871,
				0.7993899583816528
			],
			"min":[
				-1.7767678499221802,
				-12.28022289276123,
				-5.086141109466553
			],
			"type":"VEC3"
		},
		{
			"bufferView":78,
			"componentType":5126,
			"count":9973,
			"type":"VEC3"
		},
		{
			"bufferView":79,
			"componentType":5126,
			"count":9973,
			"type":"VEC2"
		},
		{
			"bufferView":80,
			"componentType":5126,
			"count":9973,
			"type":"VEC2"
		},
		{
			"bufferView":81,
			"componentType":5126,
			"count":9973,
			"type":"VEC2"
		},
		{
			"bufferView":82,
			"componentType":5126,
			"count":9973,
			"type":"VEC2"
		}
	],
	"bufferViews":[
		{
			"buffer":0,
			"byteLength":288,
			"byteOffset":0,
			"target":34962
		},
		{
			"buffer":0,
			"byteLength":288,
			"byteOffset":288,
			"target":34962
		},
		{
			"buffer":0,
			"byteLength":192,
			"byteOffset":576,
			"target":34962
		},
		{
			"buffer":0,
			"byteLength":72,
			"byteOffset":768,
			"target":34963
		},
		{
			"buffer":0,
			"byteLength":12264,
			"byteOffset":840,
			"target":34962
		},
		{
			"buffer":0,
			"byteLength":12264,
			"byteOffset":13104,
			"target":34962
		},
		{
			"buffer":0,
			"byteLength":8176,
			"byteOffset":25368,
			"target":34962
		},
		{
			"buffer":0,
			"byteLength":8176,
			"byteOffset":33544,
			"target":34962
		},
		{
			"buffer":0,
			"byteLength":8176,
			"byteOffset":41720,
			"target":34962
		},
		{
			"buffer":0,
			"byteLength":8176,
			"byteOffset":49896,
			"target":34962
		},
		{
			"buffer":0,
			"byteLength":3408,
			"byteOffset":58072,
			"target":34963
		},
		{
			"buffer":0,
			"byteLength":48864,
			"byteOffset":61480,
			"target":34962
		},
		{
			"buffer":0,
			"byteLength":48864,
			"byteOffset":110344,
			"target":34962
		},
		{
			"buffer":0,
			"byteLength":32576,
			"byteOffset":159208,
			"target":34962
		},
		{
			"buffer":0,
			"byteLength":32576,
			"byteOffset":191784,
			"target":34962
		},
		{
			"buffer":0,
			"byteLength":32576,
			"byteOffset":224360,
			"target":34962
		},
		{
			"buffer":0,
			"byteLength":32576,
			"byteOffset":256936,
			"target":34962
		},
		{
			"buffer":0,
			"byteLength":18288,
			"byteOffset":289512,
			"target":34963
		},
		{
			"buffer":0,
			"byteLength":12264,
			"byteOffset":307800,
			"target":34962
		},
		{
			"buffer":0,
			"byteLength":12264,
			"byteOffset":320064,
			"target":34962
		},
		{
			"buffer":0,
			"byteLength":8176,
			"byteOffset":332328,
			"target":34962
		},
		{
			"buffer":0,
			"byteLength":8176,
			"byteOffset":340504,
			"target":34962
		},
		{
			"buffer":0,
			"byteLength":8176,
			"byteOffset":348680,
			"target":34962
		},
		{
			"buffer":0,
			"byteLength":8176,
			"byteOffset":356856,
			"target":34962
		},
		{
			"buffer":0,
			"byteLength":12264,
			"byteOffset":365032,
			"target":34962
		},
		{
			"buffer":0,
			"byteLength":12264,
			"byteOffset":377296,
			"target":34962
		},
		{
			"buffer":0,
			"byteLength":8176,
			"byteOffset":389560,
			"target":34962
		},
		{
			"buffer":0,
			"byteLength":8176,
			"byteOffset":397736,
			"target":34962
		},
		{
			"buffer":0,
			"byteLength":8176,
			"byteOffset":405912,
			"target":34962
		},
		{
			"buffer":0,
			"byteLength":8176,
			"byteOffset":414088,
			"target":34962
		},
		{
			"buffer":0,
			"byteLength":12264,
			"byteOffset":422264,
			"target":34962
		},
		{
			"buffer":0,
			"byteLength":12264,
			"byteOffset":434528,
			"target":34962
		},
		{
			"buffer":0,
			"byteLength":8176,
			"byteOffset":446792,
			"target":34962
		},
		{
			"buffer":0,
			"byteLength":8176,
			"byteOffset":454968,
			"target":34962
		},
		{
			"buffer":0,
			"byteLength":8176,
			"byteOffset":463144,
			"target":34962
		},
		{
			"buffer":0,
			"byteLength":8176,
			"byteOffset":471320,
			"target":34962
		},
		{
			"buffer":0,
			"byteLength":1056,
			"byteOffset":479496,
			"target":34962
		},
		{
			"buffer":0,
			"byteLength":1056,
			"byteOffset":480552,
			"target":34962
		},
		{
			"buffer":0,
			"byteLength":704,
			"byteOffset":481608,
			"target":34962
		},
		{
			"buffer":0,
			"byteLength":704,
			"byteOffset":482312,
			"target":34962
		},
		{
			"buffer":0,
			"byteLength":704,
			"byteOffset":483016,
			"target":34962
		},
		{
			"buffer":0,
			"byteLength":704,
			"byteOffset":483720,
			"target":34962
		},
		{
			"buffer":0,
			"byteLength":360,
			"byteOffset":484424,
			"target":34963
		},
		{
			"buffer":0,
			"byteLength":697212,
			"byteOffset":484784,
			"target":34962
		},
		{
			"buffer":0,
			"byteLength":697212,
			"byteOffset":1181996,
			"target":34962
		},
		{
			"buffer":0,
			"byteLength":464808,
			"byteOffset":1879208,
			"target":34962
		},
		{
			"buffer":0,
			"byteLength":464808,
			"byteOffset":2344016,
			"target":34962
		},
		{
			"buffer":0,
			"byteLength":464808,
			"byteOffset":2808824,
			"target":34962
		},
		{
			"buffer":0,
			"byteLength":464808,
			"byteOffset":3273632,
			"target":34962
		},
		{
			"buffer":0,
			"byteLength":247128,
			"byteOffset":3738440,
			"target":34963
		},
		{
			"buffer":0,
			"byteLength":12264,
			"byteOffset":3985568,
			"target":34962
		},
		{
			"buffer":0,
			"byteLength":12264,
			"byteOffset":3997832,
			"target":34962
		},
		{
			"buffer":0,
			"byteLength":8176,
			"byteOffset":4010096,
			"target":34962
		},
		{
			"buffer":0,
			"byteLength":8176,
			"byteOffset":4018272,
			"target":34962
		},
		{
			"buffer":0,
			"byteLength":8176,
			"byteOffset":4026448,
			"target":34962
		},
		{
			"buffer":0,
			"byteLength":8176,
			"byteOffset":4034624,
			"target":34962
		},
		{
			"buffer":0,
			"byteLength":12576,
			"byteOffset":4042800,
			"target":34962
		},
		{
			"buffer":0,
			"byteLength":12576,
			"byteOffset":4055376,
			"target":34962
		},
		{
			"buffer":0,
			"byteLength":8384,
			"byteOffset":4067952,
			"target":34962
		},
		{
			"buffer":0,
			"byteLength":8384,
			"byteOffset":4076336,
			"target":34962
		},
		{
			"buffer":0,
			"byteLength":8384,
			"byteOffset":4084720,
			"target":34962
		},
		{
			"buffer":0,
			"byteLength":8384,
			"byteOffset":4093104,
			"target":34962
		},
		{
			"buffer":0,
			"byteLength":4020,
			"byteOffset":4101488,
			"target":34963
		},
		{
			"buffer":0,
			"byteLength":119676,
			"byteOffset":4105508,
			"target":34962
		},
		{
			"buffer":0,
			"byteLength":119676,
			"byteOffset":4225184,
			"target":34962
		},
		{
			"buffer":0,
			"byteLength":79784,
			"byteOffset":4344860,
			"target":34962
		},
		{
			"buffer":0,
			"byteLength":79784,
			"byteOffset":4424644,
			"target":34962
		},
		{
			"buffer":0,
			"byteLength":79784,
			"byteOffset":4504428,
			"target":34962
		},
		{
			"buffer":0,
			"byteLength":79784,
			"byteOffset":4584212,
			"target":34962
		},
		{
			"buffer":0,
			"byteLength":38916,
			"byteOffset":4663996,
			"target":34963
		},
		{
			"buffer":0,
			"byteLength":53160,
			"byteOffset":4702912,
			"target":34962
		},
		{
			"buffer":0,
			"byteLength":53160,
			"byteOffset":4756072,
			"target":34962
		},
		{
			"buffer":0,
			"byteLength":35440,
			"byteOffset":4809232,
			"target":34962
		},
		{
			"buffer":0,
			"byteLength":35440,
			"byteOffset":4844672,
			"target":34962
		},
		{
			"buffer":0,
			"byteLength":35440,
			"byteOffset":4880112,
			"target":34962
		},
		{
			"buffer":0,
			"byteLength":35440,
			"byteOffset":4915552,
			"target":34962
		},
		{
			"buffer":0,
			"byteLength":19314,
			"byteOffset":4950992,
			"target":34963
		},
		{
			"buffer":0,
			"byteLength":119676,
			"byteOffset":4970308,
			"target":34962
		},
		{
			"buffer":0,
			"byteLength":119676,
			"byteOffset":5089984,
			"target":34962
		},
		{
			"buffer":0,
			"byteLength":79784,
			"byteOffset":5209660,
			"target":34962
		},
		{
			"buffer":0,
			"byteLength":79784,
			"byteOffset":5289444,
			"target":34962
		},
		{
			"buffer":0,
			"byteLength":79784,
			"byteOffset":5369228,
			"target":34962
		},
		{
			"buffer":0,
			"byteLength":79784,
			"byteOffset":5449012,
			"target":34962
		}
	],
	"samplers":[
		{
			"magFilter":9729,
			"minFilter":9987
		}
	],
	"buffers":[
		{
			"byteLength":5528796,
			"uri":"new.bin"
		}
	]
}
